# xmcd
#
# Track frame offsets:
#	300
#	3888
#	18154
#	32554
#	46059
#	56447
#	70246
#	79002
#	88798
#	100227
#	110747
#
# Disc length: 1866 seconds
#
# Revision: 0
# Processed by: cddbd v1.5.2PL0 Copyright (c) Steve Scherf et al.
# Submitted via: audiograbber 1.83.01
#
DISCID=7d07460b
DTITLE=Various Artist - Country Fest 1
DYEAR=2003
DGENRE=Country
TTITLE0=Diverse artister - Y'All Come 
TTITLE1=Ottar Big Hand Johansen - Jeg snudde meg bort
TTITLE2=Lillian Askeland - Mitt Barndomsparadis
TTITLE3=Helge Borglund - Sangen om Jesse Rawlins
TTITLE4=Bjøro Håland - Adios Amigo
TTITLE5=Lillian Askeland - Jeg vet
TTITLE6=Gro Anita Schønn - Gro Anita Schønn
TTITLE7=Helge Borglund - Gi meg et tegn på dine drømmer
TTITLE8=Country Snakes - Galoppiggen
TTITLE9=Gro Anita Schønn - Hei min kjære (Hey good lookin')
TTITLE10=Diverse artister - Countryfest medley
EXTD=P 2003 Godt Norsk 11848-2
EXTT0=
EXTT1=
EXTT2=
EXTT3=
EXTT4=
EXTT5=
EXTT6=
EXTT7=
EXTT8=
EXTT9=
EXTT10=
PLAYORDER=
